<svg xmlns="http://www.w3.org/2000/svg" viewBox="0 0 640 340"><rect width="640" height="340" fill="#b7bdb3"/><pattern id="dots" width="12" height="12" patternUnits="userSpaceOnUse"><circle cx="1" cy="1" r=".8" fill="#000" opacity=".12"/></pattern><rect width="640" height="340" fill="url(#dots)"/><g transform="translate(256 56) scale(4)"><path fill="#333" d="M2 4h28v25H2z"/><path fill="#e5e4da" d="M3 5h26v22H3z"/><path fill="#142858" d="M4 6h24v5H4z"/><path fill="#315b50" d="M10 14h3v2h-3v2H8v2h2v2h3v2h-3v-2H7v-2H5v-2h2v-2h3zm11 0h-3v2h3v2h2v2h-2v2h-3v2h3v-2h3v-2h2v-2h-2v-2h-3z"/></g><text x="320" y="257" fill="#2d3d3d" font-family="Arial,sans-serif" font-size="17" text-anchor="middle" letter-spacing="2">TOOLS FOR THE WORK.</text></svg>