<svg xmlns="http://www.w3.org/2000/svg">
<defs><linearGradient id="folderFront" x2="0" y2="1"><stop stop-color="#ffd878"/><stop offset="1" stop-color="#f3b331"/></linearGradient><linearGradient id="glass" x2="0" y2="1"><stop stop-color="#a8dcff"/><stop offset="1" stop-color="#0078d7"/></linearGradient><linearGradient id="blue" x2="0" y2="1"><stop stop-color="#50b8ff"/><stop offset="1" stop-color="#0065c8"/></linearGradient></defs>
<symbol id="folder" viewBox="0 0 32 32"><path d="M2 7a2 2 0 0 1 2-2h8l3 3h13a2 2 0 0 1 2 2v16H2Z" fill="#dba22d"/><path d="M3 11h26l-1 16H4Z" fill="url(#folderFront)" stroke="#dc9b21"/><path d="M4 12h23" stroke="#fff2bb"/></symbol>
<symbol id="document" viewBox="0 0 32 32"><path d="M7 3h12l6 6v20H7Z" fill="#fff" stroke="#90a6b8"/><path d="M19 3v7h6" fill="#d6eaff"/><path d="M10 15h12m-12 4h12m-12 4h9" stroke="#7c99b2"/></symbol>
<symbol id="notepad" viewBox="0 0 32 32"><path d="M6 3h21v26H6Z" fill="#f5fbff" stroke="#4d93c1"/><path d="M6 3h21v6H6Z" fill="url(#blue)"/><path d="M10 12h13m-13 4h13m-13 4h13m-13 4h9" stroke="#90b4ca"/><path d="M9 1v5m5-5v5m5-5v5m5-5v5" stroke="#435867" stroke-width="2"/></symbol>
<symbol id="computer" viewBox="0 0 32 32"><rect x="2" y="4" width="28" height="20" rx="2" fill="#364452"/><path d="M4 6h24v15H4Z" fill="url(#glass)"/><path d="M13 24h6v4h5v2H8v-2h5Z" fill="#90a4b5"/></symbol>
<symbol id="globe" viewBox="0 0 32 32"><circle cx="16" cy="16" r="14" fill="url(#blue)"/><path d="M4 10h24M2 17h28M5 24h22M16 2v28M16 2C5 11 5 21 16 30M16 2c11 9 11 19 0 28" fill="none" stroke="#b7eaff" stroke-width="1.3"/></symbol>
<symbol id="calculator" viewBox="0 0 32 32"><rect x="6" y="2" width="21" height="28" rx="3" fill="#5c7285"/><rect x="9" y="5" width="15" height="7" rx="1" fill="#e5f7fe"/><path d="M9 16h3m3 0h3m3 0h3M9 21h3m3 0h3m3 0h3M9 26h3m3 0h3" stroke="#fff" stroke-width="3"/><path d="M21 26h3" stroke="#72c8ff" stroke-width="3"/></symbol>
<symbol id="paint" viewBox="0 0 32 32"><path d="M17 2C5 1 0 12 3 22c2 9 13 10 13 4 0-5 5-3 9-5 10-5 4-19-8-19" fill="#f9dea0" stroke="#d6af66"/><circle cx="9" cy="12" r="3" fill="#ec595d"/><circle cx="16" cy="7" r="3" fill="#f3b027"/><circle cx="24" cy="10" r="3" fill="#3dabc3"/><circle cx="26" cy="17" r="3" fill="#54b78f"/><path d="m9 29 15-20 3 2-14 21" fill="#6197bd"/></symbol>
<symbol id="settings" viewBox="0 0 32 32"><path d="m13 1 6 0 1 4 4 2 4-1 3 5-3 3v4l3 3-3 5-4-1-4 2-1 4h-6l-1-4-4-2-4 1-3-5 3-3v-4l-3-3 3-5 4 1 4-2Z" fill="#6e8397"/><circle cx="16" cy="16" r="7" fill="#d6e3ee"/><circle cx="16" cy="16" r="4" fill="#93aec5"/></symbol>
<symbol id="power" viewBox="0 0 32 32"><path d="M16 2v14M8 6a13 13 0 1 0 16 0" fill="none" stroke="currentColor" stroke-width="3" stroke-linecap="round"/></symbol>
<symbol id="mail" viewBox="0 0 32 32"><rect x="2" y="6" width="28" height="21" rx="2" fill="url(#blue)"/><path d="m3 7 13 11L29 7M3 26l10-10m16 10L19 16" fill="none" stroke="#d9eeff" stroke-width="1.5"/></symbol>
<symbol id="cards" viewBox="0 0 32 32"><rect x="3" y="3" width="19" height="25" rx="2" fill="#d3e8fc" stroke="#6497c3" transform="rotate(-12 12 15)"/><rect x="11" y="5" width="18" height="25" rx="2" fill="#fff" stroke="#99adbf"/><path d="m20 12 5 7-5 7-5-7Z" fill="#dc404d"/></symbol>
<symbol id="mine" viewBox="0 0 32 32"><path d="M16 1v30M1 16h30M5 5l22 22M5 27 27 5" stroke="#42535f" stroke-width="3"/><circle cx="16" cy="16" r="10" fill="#415464"/><circle cx="12" cy="12" r="3" fill="#c6edff"/></symbol>
<symbol id="pinball" viewBox="0 0 32 32"><path d="m6 4 20 0 3 25H3Z" fill="#344898" stroke="#829bc6"/><circle cx="21" cy="11" r="5" fill="#e8f3ff"/><path d="m6 24 8 3 3-3m3 2 6-3" fill="none" stroke="#ed6f67" stroke-width="3"/></symbol>
<symbol id="recycle" viewBox="0 0 32 32"><path d="M6 8h20l-3 22H9Z" fill="#d5eaf0" stroke="#7aa0af"/><path d="M4 6h24M12 3h8" stroke="#759aaa" stroke-width="3"/><path d="m11 16 4-5 4 5m-4-5v10m-2 3h7l3-5" fill="none" stroke="#409b83" stroke-width="2"/></symbol>
<symbol id="clock" viewBox="0 0 32 32"><circle cx="16" cy="16" r="14" fill="#f6fbff" stroke="#7097b4" stroke-width="2"/><path d="M16 6v11l7 4" fill="none" stroke="#3b6384" stroke-width="2"/></symbol>
<symbol id="start-vista" viewBox="0 0 32 32"><path d="M3 6q6-4 12-1v10q-6-3-12 1Z" fill="#f15a42"/><path d="M17 5q6 3 12-1v10q-6 4-12 1Z" fill="#72bd34"/><path d="M3 18q6-4 12-1v10q-6-3-12 1Z" fill="#32a4ed"/><path d="M17 17q6 3 12-1v10q-6 4-12 1Z" fill="#f4cf25"/></symbol>
<symbol id="start-10" viewBox="0 0 32 32"><path d="m2 6 12-2v11H2Zm14-2 14-2v13H16ZM2 17h12v11L2 26Zm14 0h14v13l-14-2Z" fill="currentColor"/></symbol>
<symbol id="start-11" viewBox="0 0 32 32"><path d="M2 2h13v13H2Zm15 0h13v13H17ZM2 17h13v13H2Zm15 0h13v13H17Z" fill="currentColor"/></symbol>
</svg>
